<?xml version="1.0" standalone="no"?>
<!DOCTYPE svg PUBLIC "-//W3C//DTD SVG 20010904//EN"
 "http://www.w3.org/TR/2001/REC-SVG-20010904/DTD/svg10.dtd">
<svg version="1.0" xmlns="http://www.w3.org/2000/svg"
 width="273.000000pt" height="70.000000pt" viewBox="0 0 273.000000 70.000000"
 preserveAspectRatio="xMidYMid meet">
<style>
  .guruva-logo-paths path {
    fill: #99185a;
  }

  .guruva-logo-paths path:nth-of-type(-n+5),
  .guruva-logo-paths path:nth-of-type(n+13) {
    fill: #7b245a;
  }
</style>

<g transform="translate(0.000000,70.000000) scale(0.100000,-0.100000)"
class="guruva-logo-paths" stroke="none">
<path d="M167 693 c-12 -12 -7 -22 14 -28 11 -4 27 -21 34 -38 l14 -32 1 33
c0 43 -42 87 -63 65z"/>
<path d="M15 580 c-27 -29 -10 -74 28 -78 37 -4 57 13 57 49 0 47 -53 65 -85
29z m37 -61 c18 -1 19 -2 5 -6 -22 -6 -47 14 -46 36 0 11 3 9 9 -6 6 -14 19
-23 32 -24z"/>
<path d="M124 575 c-16 -24 -12 -65 7 -65 6 0 5 9 -1 23 -9 19 -9 20 2 6 19
-24 67 -30 77 -10 10 20 4 42 -17 59 -25 19 -50 14 -68 -13z"/>
<path d="M248 589 c-21 -12 -24 -59 -6 -77 7 -7 23 -11 37 -11 25 1 25 2 -3 8
-16 3 -32 13 -34 21 -5 13 -3 13 11 1 9 -7 26 -11 37 -8 11 3 18 1 14 -4 -3
-5 -1 -9 5 -9 19 0 23 41 7 65 -17 26 -40 31 -68 14z"/>
<path d="M356 584 c-20 -19 -21 -58 -2 -73 25 -21 69 -9 80 21 17 50 -42 89
-78 52z m39 -62 c13 3 22 1 19 -3 -15 -24 -65 0 -63 31 0 9 4 5 10 -9 7 -18
15 -22 34 -19z"/>
<path d="M641 568 c-118 -63 -120 -233 -4 -289 35 -17 54 -20 94 -15 73 10 99
24 99 55 0 41 11 71 26 71 8 0 14 5 14 10 0 6 -30 10 -70 10 -68 0 -98 -15
-42 -22 25 -3 27 -7 30 -49 3 -41 0 -47 -20 -53 -99 -26 -168 31 -168 139 0
92 47 145 128 145 44 0 63 -13 86 -55 l15 -30 1 45 c0 37 -4 46 -17 47 -10 1
-43 4 -73 8 -47 6 -62 3 -99 -17z"/>
<path d="M1340 580 c-37 -4 -47 -7 -30 -10 l25 -5 3 -137 c2 -132 2 -138 -17
-138 -11 0 -23 -4 -26 -10 -4 -6 22 -10 69 -10 44 0 76 4 76 10 0 6 -11 10
-25 10 -24 0 -25 3 -25 55 0 54 0 55 30 55 24 0 34 -8 54 -43 32 -54 63 -84
99 -92 33 -9 35 1 3 26 -13 10 -38 41 -56 69 l-33 51 21 15 c45 31 35 116 -15
142 -27 14 -92 19 -153 12z m130 -30 c45 -45 8 -140 -55 -140 -25 0 -25 1 -25
80 l0 80 30 0 c17 0 39 -9 50 -20z"/>
<path d="M2470 445 c-34 -95 -60 -149 -74 -159 -20 -14 -17 -15 39 -15 51 1
56 2 33 10 l-26 10 15 47 c21 64 30 72 73 72 41 0 51 -9 68 -55 5 -16 13 -37
17 -46 5 -12 -1 -20 -22 -27 -24 -9 -18 -11 42 -11 63 -1 68 0 49 13 -13 9
-41 70 -75 160 -39 105 -59 146 -70 146 -12 0 -31 -39 -69 -145z m78 46 c17
-55 15 -61 -18 -61 -16 0 -30 5 -30 11 0 21 23 89 30 89 4 0 12 -17 18 -39z"/>
<path d="M910 571 c24 -7 25 -9 30 -125 5 -117 5 -118 37 -146 58 -52 152 -49
204 6 21 23 24 36 27 117 3 118 8 136 35 147 16 6 5 9 -43 9 -53 0 -61 -2 -45
-11 11 -6 23 -16 27 -22 11 -16 9 -146 -3 -188 -16 -58 -82 -84 -142 -57 -41
18 -52 53 -52 158 0 92 1 96 25 108 22 11 17 13 -50 12 -47 -1 -66 -4 -50 -8z"/>
<path d="M1640 571 c24 -7 25 -9 30 -123 5 -106 7 -119 29 -142 14 -14 30 -26
37 -26 23 0 25 19 5 41 -24 26 -33 80 -29 169 3 57 6 66 28 77 22 11 17 13
-50 12 -47 -1 -66 -4 -50 -8z"/>
<path d="M1887 568 c13 -6 25 -18 27 -27 10 -33 8 -138 -3 -178 -13 -48 -35
-64 -99 -73 -47 -6 -61 -23 -22 -28 37 -6 93 15 120 43 22 23 25 37 27 118 4
117 9 136 36 147 16 6 5 9 -43 9 -54 0 -61 -2 -43 -11z"/>
<path d="M2031 565 c21 -12 39 -45 85 -160 32 -80 63 -145 70 -145 7 0 38 65
69 145 36 91 64 150 78 160 20 14 17 15 -43 14 -36 -1 -55 -4 -42 -6 13 -3 26
-11 29 -18 5 -13 -61 -200 -77 -218 -8 -9 -77 148 -87 194 -4 22 0 28 23 37
24 9 16 10 -51 11 -75 0 -78 -1 -54 -14z"/>
<path d="M153 503 c9 -2 23 -2 30 0 6 3 -1 5 -18 5 -16 0 -22 -2 -12 -5z"/>
<path d="M72 488 c-15 -15 -15 -61 0 -76 15 -15 55 -16 64 0 4 7 3 8 -5 4 -16
-10 -61 1 -61 15 0 8 4 8 14 0 17 -14 67 -10 73 6 3 7 -2 24 -11 38 -18 27
-54 33 -74 13z"/>
<path d="M188 489 c-21 -12 -24 -59 -6 -77 7 -7 23 -11 37 -11 21 1 22 2 6 6
-28 7 -45 23 -44 42 0 10 4 8 10 -8 7 -18 15 -22 34 -19 13 3 22 1 19 -3 -3
-5 -1 -9 4 -9 24 0 28 52 6 74 -18 18 -41 20 -66 5z"/>
<path d="M296 484 c-23 -22 -18 -74 7 -74 7 0 7 4 -1 12 -7 7 -12 19 -11 28 0
9 4 5 10 -9 7 -18 15 -22 35 -18 29 5 19 -9 -11 -16 -16 -4 -15 -5 6 -6 32 -1
49 16 49 51 0 43 -53 64 -84 32z"/>
<path d="M124 375 c-15 -23 -15 -27 0 -50 22 -33 60 -33 82 0 15 23 15 27 0
50 -10 15 -26 25 -41 25 -15 0 -31 -10 -41 -25z m51 -51 c9 3 13 2 10 -4 -11
-18 -44 -10 -56 13 -12 22 -12 22 9 3 12 -10 28 -16 37 -12z"/>
<path d="M242 388 c-17 -17 -15 -63 2 -78 18 -14 62 -9 59 8 -2 6 2 11 9 9 19
-4 21 33 2 54 -19 21 -54 25 -72 7z m36 -69 c11 0 12 -2 4 -6 -15 -6 -42 14
-42 31 0 6 5 3 11 -6 5 -10 18 -18 27 -19z"/>
<path d="M186 284 c-20 -19 -21 -58 -2 -73 25 -21 69 -9 80 21 17 50 -42 89
-78 52z m43 -61 c11 3 19 1 15 -4 -5 -9 -54 -13 -54 -5 0 2 -3 13 -6 23 -6 17
-6 17 8 -1 10 -13 22 -17 37 -13z"/>
</g>
</svg>
